<svg width="159" height="24" viewBox="0 0 159 24" fill="none" xmlns="http://www.w3.org/2000/svg">
<g clip-path="url(#clip0_9_62)">
<circle cx="10.4609" cy="17.1235" r="13.7109" fill="#FF3B30" fill-opacity="0.4"/>
<circle cx="10.4457" cy="17.1083" r="9.25488" fill="#FF3B30"/>
</g>
<path d="M27.872 22.6466C27.638 22.6466 27.3585 22.6336 27.0335 22.6076C26.7085 22.5816 26.377 22.5361 26.039 22.4711V20.0921C26.299 20.1441 26.546 20.1831 26.78 20.2091C27.014 20.2351 27.2025 20.2481 27.3455 20.2481C27.9435 20.2481 28.366 20.0791 28.613 19.7411C28.86 19.4031 28.9835 18.8571 28.9835 18.1031V5.25259H32.0255V18.1031C32.0255 19.1171 31.8825 19.9621 31.5965 20.6381C31.3235 21.3141 30.8815 21.8146 30.2705 22.1396C29.6725 22.4776 28.873 22.6466 27.872 22.6466ZM38.3018 19.1951C37.0928 19.1951 36.1893 18.8636 35.5913 18.2006C34.9933 17.5376 34.6943 16.5236 34.6943 15.1586V9.15259H37.1318V15.1391C37.1318 15.8671 37.2813 16.4066 37.5803 16.7576C37.8793 17.0956 38.3343 17.2646 38.9453 17.2646C39.6343 17.2646 40.1933 17.0306 40.6223 16.5626C41.0643 16.0946 41.2853 15.4771 41.2853 14.7101V9.15259H43.7228V19.0001H41.3438V16.9916H41.6168C41.3308 17.6936 40.8953 18.2396 40.3103 18.6296C39.7383 19.0066 39.0688 19.1951 38.3018 19.1951ZM46.369 19.0001V11.6096C46.369 11.2066 46.356 10.7971 46.33 10.3811C46.304 9.96509 46.265 9.55559 46.213 9.15259H48.5725L48.7675 11.1026H48.5335C48.8065 10.4266 49.2225 9.90009 49.7815 9.52309C50.3535 9.14609 51.0295 8.95759 51.8095 8.95759C52.5895 8.95759 53.233 9.14609 53.74 9.52309C54.26 9.88709 54.624 10.4591 54.832 11.2391H54.52C54.793 10.5371 55.2415 9.98459 55.8655 9.58159C56.4895 9.16559 57.2045 8.95759 58.0105 8.95759C59.1155 8.95759 59.941 9.28259 60.487 9.93259C61.033 10.5826 61.306 11.5966 61.306 12.9746V19.0001H58.8685V13.0721C58.8685 12.2921 58.7385 11.7331 58.4785 11.3951C58.2185 11.0441 57.8025 10.8686 57.2305 10.8686C56.5545 10.8686 56.0215 11.1091 55.6315 11.5901C55.2415 12.0581 55.0465 12.6951 55.0465 13.5011V19.0001H52.609V13.0721C52.609 12.2921 52.479 11.7331 52.219 11.3951C51.959 11.0441 51.543 10.8686 50.971 10.8686C50.295 10.8686 49.762 11.1091 49.372 11.5901C48.995 12.0581 48.8065 12.6951 48.8065 13.5011V19.0001H46.369ZM63.9075 23.2121V11.6096C63.9075 11.2066 63.8945 10.7971 63.8685 10.3811C63.8425 9.96509 63.8035 9.55559 63.7515 9.15259H66.111L66.3255 11.2196H66.111C66.306 10.5306 66.7155 9.98459 67.3395 9.58159C67.9765 9.16559 68.711 8.95759 69.543 8.95759C70.414 8.95759 71.1745 9.16559 71.8245 9.58159C72.4745 9.98459 72.9815 10.5696 73.3455 11.3366C73.7095 12.0906 73.8915 13.0006 73.8915 14.0666C73.8915 15.1326 73.7095 16.0491 73.3455 16.8161C72.9815 17.5831 72.4745 18.1746 71.8245 18.5906C71.1745 18.9936 70.414 19.1951 69.543 19.1951C68.724 19.1951 68.0025 18.9936 67.3785 18.5906C66.7545 18.1876 66.3385 17.6481 66.1305 16.9721H66.345V23.2121H63.9075ZM68.8605 17.3231C69.6405 17.3231 70.2645 17.0566 70.7325 16.5236C71.2005 15.9776 71.4345 15.1586 71.4345 14.0666C71.4345 12.9746 71.2005 12.1621 70.7325 11.6291C70.2645 11.0961 69.6405 10.8296 68.8605 10.8296C68.0935 10.8296 67.476 11.0961 67.008 11.6291C66.54 12.1621 66.306 12.9746 66.306 14.0666C66.306 15.1586 66.54 15.9776 67.008 16.5236C67.476 17.0566 68.0935 17.3231 68.8605 17.3231ZM76.1948 19.0001V5.25259H82.2203C83.7153 5.25259 84.8658 5.57109 85.6718 6.20809C86.4778 6.83209 86.8808 7.70309 86.8808 8.82109C86.8808 9.65309 86.6338 10.3551 86.1398 10.9271C85.6458 11.4991 84.9633 11.8826 84.0923 12.0776V11.7851C85.0933 11.9281 85.8668 12.2921 86.4128 12.8771C86.9718 13.4491 87.2513 14.2096 87.2513 15.1586C87.2513 16.3806 86.8288 17.3296 85.9838 18.0056C85.1388 18.6686 83.9623 19.0001 82.4543 19.0001H76.1948ZM78.6128 17.0891H82.1618C83.0068 17.0891 83.6633 16.9331 84.1313 16.6211C84.5993 16.2961 84.8333 15.7696 84.8333 15.0416C84.8333 14.3006 84.5993 13.7741 84.1313 13.4621C83.6633 13.1371 83.0068 12.9746 82.1618 12.9746H78.6128V17.0891ZM78.6128 11.0831H81.7913C82.6883 11.0831 83.3513 10.9206 83.7803 10.5956C84.2223 10.2576 84.4433 9.76359 84.4433 9.11359C84.4433 8.46359 84.2223 7.97609 83.7803 7.65109C83.3513 7.31309 82.6883 7.14409 81.7913 7.14409H78.6128V11.0831ZM93.2657 19.1951C92.4077 19.1951 91.6537 18.9936 91.0037 18.5906C90.3537 18.1746 89.8467 17.5831 89.4827 16.8161C89.1187 16.0491 88.9367 15.1326 88.9367 14.0666C88.9367 13.0006 89.1187 12.0906 89.4827 11.3366C89.8467 10.5696 90.3537 9.98459 91.0037 9.58159C91.6537 9.16559 92.4077 8.95759 93.2657 8.95759C94.0977 8.95759 94.8257 9.16559 95.4497 9.58159C96.0867 9.98459 96.5092 10.5306 96.7172 11.2196H96.5027L96.7172 9.15259H99.0572C99.0182 9.55559 98.9792 9.96509 98.9402 10.3811C98.9142 10.7971 98.9012 11.2066 98.9012 11.6096V19.0001H96.4832L96.4637 16.9721H96.6977C96.4897 17.6481 96.0672 18.1876 95.4302 18.5906C94.7932 18.9936 94.0717 19.1951 93.2657 19.1951ZM93.9482 17.3231C94.7152 17.3231 95.3327 17.0566 95.8007 16.5236C96.2687 15.9776 96.5027 15.1586 96.5027 14.0666C96.5027 12.9746 96.2687 12.1621 95.8007 11.6291C95.3327 11.0961 94.7152 10.8296 93.9482 10.8296C93.1812 10.8296 92.5637 11.0961 92.0957 11.6291C91.6277 12.1621 91.3937 12.9746 91.3937 14.0666C91.3937 15.1586 91.6212 15.9776 92.0762 16.5236C92.5442 17.0566 93.1682 17.3231 93.9482 17.3231ZM106.08 19.1951C105.066 19.1951 104.175 18.9871 103.408 18.5711C102.654 18.1551 102.069 17.5636 101.653 16.7966C101.237 16.0166 101.029 15.0936 101.029 14.0276C101.029 12.9616 101.237 12.0516 101.653 11.2976C102.082 10.5436 102.674 9.96509 103.428 9.56209C104.182 9.15909 105.066 8.95759 106.08 8.95759C106.73 8.95759 107.36 9.06159 107.971 9.26959C108.595 9.46459 109.102 9.75059 109.492 10.1276L108.751 11.8241C108.4 11.4991 108.004 11.2586 107.562 11.1026C107.133 10.9336 106.71 10.8491 106.294 10.8491C105.423 10.8491 104.741 11.1221 104.247 11.6681C103.766 12.2141 103.525 13.0071 103.525 14.0471C103.525 15.0871 103.766 15.8866 104.247 16.4456C104.741 17.0046 105.423 17.2841 106.294 17.2841C106.697 17.2841 107.113 17.2061 107.542 17.0501C107.984 16.8941 108.387 16.6536 108.751 16.3286L109.492 18.0056C109.089 18.3826 108.576 18.6751 107.952 18.8831C107.341 19.0911 106.717 19.1951 106.08 19.1951ZM111.382 19.0001V4.64809H113.819V13.3451H113.858L117.856 9.15259H120.8L115.828 14.3591L115.847 13.3841L121.151 19.0001H118.129L113.858 14.5931H113.819V19.0001H111.382ZM121.569 14.5931V12.6626H127.497V14.5931H121.569ZM129.601 23.4266L129.036 21.4961C129.647 21.3661 130.16 21.2166 130.576 21.0476C130.992 20.8786 131.337 20.6576 131.61 20.3846C131.883 20.1116 132.11 19.7606 132.292 19.3316L132.78 18.1811L132.721 19.1366L128.431 9.15259H131.025L134.106 16.8356H133.54L136.641 9.15259H139.098L134.613 19.5461C134.314 20.2481 133.989 20.8266 133.638 21.2816C133.287 21.7496 132.91 22.1201 132.507 22.3931C132.104 22.6791 131.662 22.9001 131.181 23.0561C130.7 23.2121 130.173 23.3356 129.601 23.4266ZM144.844 19.1951C143.674 19.1951 142.79 18.8896 142.192 18.2786C141.594 17.6676 141.295 16.7511 141.295 15.5291V10.9856H139.403V9.15259H141.295V6.63709L143.732 6.01309V9.15259H146.365V10.9856H143.732V15.3731C143.732 16.0491 143.862 16.5236 144.122 16.7966C144.382 17.0696 144.74 17.2061 145.195 17.2061C145.442 17.2061 145.65 17.1866 145.819 17.1476C146.001 17.1086 146.176 17.0566 146.345 16.9916V18.9221C146.124 19.0131 145.877 19.0781 145.604 19.1171C145.344 19.1691 145.091 19.1951 144.844 19.1951ZM148.02 23.2121V11.6096C148.02 11.2066 148.007 10.7971 147.981 10.3811C147.955 9.96509 147.916 9.55559 147.864 9.15259H150.224L150.438 11.2196H150.224C150.419 10.5306 150.828 9.98459 151.452 9.58159C152.089 9.16559 152.824 8.95759 153.656 8.95759C154.527 8.95759 155.287 9.16559 155.937 9.58159C156.587 9.98459 157.094 10.5696 157.458 11.3366C157.822 12.0906 158.004 13.0006 158.004 14.0666C158.004 15.1326 157.822 16.0491 157.458 16.8161C157.094 17.5831 156.587 18.1746 155.937 18.5906C155.287 18.9936 154.527 19.1951 153.656 19.1951C152.837 19.1951 152.115 18.9936 151.491 18.5906C150.867 18.1876 150.451 17.6481 150.243 16.9721H150.458V23.2121H148.02ZM152.973 17.3231C153.753 17.3231 154.377 17.0566 154.845 16.5236C155.313 15.9776 155.547 15.1586 155.547 14.0666C155.547 12.9746 155.313 12.1621 154.845 11.6291C154.377 11.0961 153.753 10.8296 152.973 10.8296C152.206 10.8296 151.589 11.0961 151.121 11.6291C150.653 12.1621 150.419 12.9746 150.419 14.0666C150.419 15.1586 150.653 15.9776 151.121 16.5236C151.589 17.0566 152.206 17.3231 152.973 17.3231Z" fill="white"/>
<defs>
<clipPath id="clip0_9_62">
<rect width="20.8" height="20.8" fill="white"/>
</clipPath>
</defs>
</svg>
